<svg width="87" height="85" viewBox="0 0 87 85" fill="none" xmlns="http://www.w3.org/2000/svg">
<path d="M83.9514 37.0652C81.3401 22.0771 70.4584 0.666939 41.0959 2.06515C7.88283 3.64673 1.24694 37.603 2.06438 54.9653C2.08204 55.3404 2.3016 55.6556 2.64541 55.8068C13.4658 60.5652 38.5093 71.5849 56.5959 79.5652C74.9959 87.6837 79.2626 76.1825 79.0959 69.417M83.9514 37.0652C84.3283 39.2282 84.5329 41.2575 84.5959 43.0652V70.4738C84.5959 71.2107 83.8261 71.6945 83.1621 71.3748L79.0959 69.417M83.9514 37.0652L53.5959 34.3994M53.5959 34.3994L45.1834 33.6607C44.5989 33.6094 44.0959 34.07 44.0959 34.6569V51.9368C44.0959 52.3209 44.316 52.6711 44.6621 52.8378L53.5959 57.1393M53.5959 34.3994V57.1393M53.5959 57.1393L79.0959 69.417" stroke="white" stroke-width="4"/>
<circle cx="20.5" cy="43.5" r="7" stroke="white" stroke-width="5"/>
</svg>
