<svg width="74" height="87" viewBox="0 0 74 87" fill="none" xmlns="http://www.w3.org/2000/svg">
<path d="M9.47849 72.8145H54.7054C55.3289 72.8473 55.9078 72.9172 56.4447 73.0199M9.47849 72.8145C6.28159 72.8145 0.523101 75.1216 2.35044 84.2255C2.44158 84.6795 2.84738 85 3.3105 85H61.499C61.9407 85 62.3336 84.7111 62.4347 84.2811C63.3143 80.5405 63.0524 74.2848 56.4447 73.0199M9.47849 72.8145V11.8869C9.09189 8.40535 10.1742 1.55825 17.596 2.02246C25.0179 2.48667 42.3355 2.21588 50.0666 2.02246C52.3859 2.02248 56.9086 3.99541 56.4447 11.8869C56.1096 17.5892 56.1579 38.0471 56.2834 55.4065C56.2847 55.5929 56.2861 55.7788 56.2874 55.9644M56.4447 73.0199C56.3926 68.4116 56.3349 62.4171 56.2874 55.9644M56.2874 55.9644C58.2925 55.3841 62.5345 55.5002 63.4622 60.6065C64.3504 65.4953 66.7268 66.1645 67.9453 65.8732C68.0499 65.8482 68.1569 65.8353 68.2599 65.8043C69.264 65.5018 71 62.3209 71 51.3223C71 45.8387 71 38.8437 71 32.1736M64.042 20.5684C65.2017 21.7289 71 15.4271 71 16.5066M64.042 20.5684L71 16.5066M64.042 20.5684C62.3025 37.396 68.2941 31.5934 71 32.1736M71 16.5066C71 20.6271 71 26.2732 71 32.1736M17.4363 9.5658H47.3271C47.8794 9.5658 48.3271 10.0135 48.3271 10.5658V30.0355C48.3271 30.5878 47.8794 31.0355 47.3271 31.0355H17.4363C16.8841 31.0355 16.4363 30.5878 16.4363 30.0355V10.5658C16.4363 10.0135 16.8841 9.5658 17.4363 9.5658Z" stroke="white" stroke-width="4"/>
<rect x="63.5374" y="5.72192" width="13.948" height="4.6421" rx="2.32105" transform="rotate(44.9123 63.5374 5.72192)" fill="white"/>
</svg>
