<svg width="118" height="94" viewBox="0 0 118 94" fill="none" xmlns="http://www.w3.org/2000/svg">
<path d="M70.2751 66.7113L80.2811 76.9393C80.4972 77.1602 80.599 77.4686 80.557 77.7748L78.83 90.3418C78.727 91.0913 79.4615 91.6793 80.1703 91.4148L93.3945 86.4798C93.6316 86.3913 93.8934 86.396 94.1272 86.4929L105.797 91.3319C106.511 91.6278 107.276 91.0374 107.171 90.2721L105.45 77.7472C105.41 77.4568 105.5 77.1635 105.695 76.9449L114.875 66.6672C115.381 66.1004 115.095 65.1984 114.355 65.0269L101.718 62.0998C101.477 62.044 101.266 61.9011 101.124 61.6985L93.1734 50.3248C92.7477 49.7158 91.8301 49.7673 91.4752 50.42L85.3928 61.6071C85.2528 61.8647 85.0067 62.0479 84.7197 62.1081L70.7845 65.0333C70.0119 65.1955 69.723 66.147 70.2751 66.7113Z" stroke="white" stroke-width="4"/>
<path d="M37.2751 19.7113L47.2811 29.9393C47.4972 30.1602 47.599 30.4686 47.557 30.7748L45.83 43.3418C45.727 44.0913 46.4615 44.6793 47.1703 44.4148L60.3945 39.4798C60.6316 39.3913 60.8934 39.396 61.1272 39.4929L72.7974 44.3319C73.511 44.6278 74.2763 44.0374 74.1712 43.2721L72.45 30.7472C72.4101 30.4568 72.4996 30.1635 72.6949 29.9449L81.8751 19.6672C82.3814 19.1004 82.0954 18.1984 81.355 18.0269L68.7181 15.0998C68.4773 15.044 68.2657 14.9011 68.1241 14.6985L60.1734 3.32476C59.7477 2.71582 58.8301 2.7673 58.4752 3.42003L52.3928 14.6071C52.2528 14.8647 52.0067 15.0479 51.7197 15.1081L37.7845 18.0333C37.0119 18.1955 36.723 19.147 37.2751 19.7113Z" stroke="white" stroke-width="4"/>
<path d="M3.2751 66.7113L13.2811 76.9393C13.4972 77.1602 13.599 77.4686 13.557 77.7748L11.83 90.3418C11.727 91.0913 12.4615 91.6793 13.1703 91.4148L26.3945 86.4798C26.6316 86.3913 26.8934 86.396 27.1272 86.4929L38.7974 91.3319C39.511 91.6278 40.2763 91.0374 40.1712 90.2721L38.45 77.7472C38.4101 77.4568 38.4996 77.1635 38.6949 76.9449L47.8751 66.6672C48.3814 66.1004 48.0954 65.1984 47.355 65.0269L34.7181 62.0998C34.4773 62.044 34.2657 61.9011 34.1241 61.6985L26.1734 50.3248C25.7477 49.7158 24.8301 49.7673 24.4752 50.42L18.3928 61.6071C18.2528 61.8647 18.0067 62.0479 17.7197 62.1081L3.78448 65.0333C3.01188 65.1955 2.72303 66.147 3.2751 66.7113Z" stroke="white" stroke-width="4"/>
</svg>
