<svg width="33" height="35" viewBox="0 0 33 35" fill="none" xmlns="http://www.w3.org/2000/svg">
<path d="M13.7582 16.5681L2.89956 28.0843C1.70015 29.3562 1.70015 31.4187 2.89956 32.6907C4.09896 33.9628 6.04359 33.9628 7.243 32.6907L18.1016 21.1747" stroke="white" stroke-width="2.37196" stroke-linecap="round" stroke-linejoin="round"/>
<path d="M24.726 21.7688L30.6816 28.0851C31.8811 29.357 31.8811 31.4195 30.6816 32.6915C29.4823 33.9636 27.5376 33.9636 26.3382 32.6915L16.8042 22.5803" stroke="white" stroke-width="2.37196" stroke-linecap="round" stroke-linejoin="round"/>
<path d="M8.66361 8.90966L5.40603 10.0613L2.14844 4.30323L4.32016 2L9.74948 5.45483L8.66361 8.90966ZM8.66361 8.90966L13.0098 13.519" stroke="white" stroke-width="2.37196" stroke-linecap="round" stroke-linejoin="round"/>
<path d="M13.758 16.5672C12.4622 13.0608 12.7155 8.45998 15.3868 5.62697C18.0581 2.79395 22.9878 2.17214 25.7025 3.89956L21.0331 8.85166L20.5991 13.9184L25.3765 13.4581L30.0459 8.50599C31.6748 11.385 31.0885 16.6133 28.4172 19.4463C25.7458 22.2793 21.4078 22.548 18.1015 21.1736" stroke="white" stroke-width="2.37196" stroke-linecap="round" stroke-linejoin="round"/>
</svg>
