<svg width="88" height="79" viewBox="0 0 88 79" fill="none" xmlns="http://www.w3.org/2000/svg">
<path d="M22 19L34.2539 30.5M34.2539 30.5C32.3556 5.58522 54.3535 3.8345 67.5423 6.54904C68.3522 6.71573 68.5689 7.73849 67.921 8.25229L55.3391 18.231C55.1227 18.4027 54.9869 18.6562 54.964 18.9315L54.1036 29.2558C54.0504 29.8939 54.6024 30.4169 55.2368 30.3294L68.2123 28.5397C68.4002 28.5138 68.5768 28.435 68.7216 28.3125L80.2207 18.5824C80.7986 18.0934 81.6877 18.4025 81.8191 19.148C85.027 37.3478 75.6629 45.0405 64.8213 47.5M34.2539 30.5C34.3724 32.0557 34.5841 33.7016 34.8969 35.4423C34.9591 35.7886 34.839 36.1431 34.576 36.3768L3.68895 63.832C3.56489 63.9423 3.47054 64.0791 3.41613 64.2359C1.50317 69.7494 1.30579 79.4318 15.2452 76.0627C15.4075 76.0234 15.5644 75.9408 15.6873 75.8278L43 50.7178M43 50.7178L46.1204 47.849C46.3586 47.63 46.6876 47.5406 47.005 47.6035C52.0762 48.6078 58.6854 48.892 64.8213 47.5M43 50.7178L70.5 74C72.6667 75.6667 78.1 78 82.5 74C86.9 70 85 65.6667 83.5 64L64.8213 47.5M13.1329 20.8242L20.9298 18.6584C21.2814 18.5608 21.552 18.2792 21.6355 17.924L23.3263 10.7382C23.429 10.3017 23.2286 9.85025 22.836 9.63363L9.60727 2.33505C9.24205 2.13354 8.79011 2.17991 8.4734 2.45137L2.73739 7.36795C2.3267 7.71997 2.27037 8.33474 2.61025 8.75554L12.0873 20.489C12.3378 20.7992 12.7487 20.9309 13.1329 20.8242Z" stroke="white" stroke-width="4"/>
</svg>
